# xmcd
#
# Track frame offsets:
# 150
# 84427
# 108750
# 134255
# 142865
# 219690
#
# Disc length: 3935 seconds
#
#
# Revision: 6
# Processed by: cddbd v1.5.1PL2 Copyright (c) Steve Scherf et al.
# Submitted via: FreeRIP 2.60 
#
DISCID=4a0f5d06
DTITLE=Porcupine Tree - The Sky Moves Sideways
DYEAR=1995
DGENRE=Rock
TTITLE0=The Sky Moves Sideways (phase one)
TTITLE1=Dislocated Day
TTITLE2=The Moon Touches Your Shoulder
TTITLE3=Prepare Yourself
TTITLE4=Moonloop
TTITLE5=The Sky Moves Sideways (phase two)
EXTD=YEAR: 1995 ID3G: 17
EXTT0=
EXTT1=
EXTT2=
EXTT3=
EXTT4=
EXTT5=
PLAYORDER=
